<?xml version="1.0" encoding="UTF-8"?><svg id="Layer_2" xmlns="http://www.w3.org/2000/svg" width="1412.68" height="1438.66" viewBox="0 0 1412.68 1438.66"><defs><style>.cls-1{fill:#fff;}.cls-2{fill:#070606;}</style></defs><g id="Layer_1-2"><path class="cls-1" d="m622.37,191.86c-.18-.03-59.06-11.16-95.14-59.7-36.26-48.78-26.47-90.95-26.44-91.07l2.07-9.32,6.35,7.14c21.43,24.08,41.45,42,63.41,57.32,22.02,15.36,46.03,28.13,75.4,41.86l-.45,9.03-60.88,21.51c20.7,10.43,37.48,13.61,37.56,13.62l-1.88,9.61Zm487.58,55.66l-14.57-18.93-4.01,2.88c3.11,3.97,8.03,10.37,12.27,16.32-5.25-5.08-11.38-10.76-15.17-14.25l-2.3,1.66,18.76,23.19c.97-1.49,1.88-3.11,2.68-4.83-1.18-1.8-2.54-3.76-3.97-5.77,1.64,1.59,3.19,3.11,4.55,4.5.65-1.49,1.23-3.05,1.71-4.64l.04-.13Zm1.65-10.44l-9.93-13-2.76,1.98,12.29,15.98c.26-1.67.4-3.33.4-4.96Zm-5.65-14.56l3.38,4.43c-.83-1.58-1.9-3.02-3.24-4.3l-.14-.13Zm-403.11-80.78l-106.17-71.33c-3.9-1.6-7.7-3.37-11.37-5.31-40.95-21.68-82.49-43.12-97.23-50.71-6.38,31.77-26.49,179.36,142.03,208l72.74-80.65Zm-74.8-62.02l83.53,56.12,126.18-27.08c-16.26-8.72-36.56-15.23-63.79-18.22-18.01-1.98-37.52-2.59-57.33-3.21-30.03-.93-60.75-1.89-88.58-7.62Zm148.52,163.92l-67.62-97.32-70.68,78.37,138.3,18.95Zm44.47-73.09l-30.64,74.06,119.07-3.68-13.3-28.68-18.49-19.91-56.64-21.79Zm-37.26,70.14l29.93-72.34-95.63-22.21,65.7,94.55Zm92.95-74.8l-28.79-51.05-.55-.36-120.62,25.88,92.71,21.53,57.24,4Zm40.98,9l-31.09-.83-2.66,13.87,17.27,18.59,175.34,23.54,17.89-12.85-168.95-39.17s-2.83-.63-7.79-3.15Zm-54.45-48.33l22.48,39.87,19.37.51c-6.39-4.75-14.01-11.47-22.5-20.94-6.09-6.78-12.39-13.35-19.36-19.45Zm-34.23,332.54c59.95-9.88,104.76,1.89,133.67,9.49,10.78,2.84,19.26,5.07,25,5.21,10.04.25,18.92-4.06,26.18-9.86,12.62-10.09,20.1-23.97,20.59-27.33.28-1.97-.69-4.69-2.99-7.99-2.57-3.68-6.65-7.78-12.35-12.12l-100.67-76.53,3.63-8.74c103.24,14.15,154.16-35.21,156.38-37.42,7.46-8.08,14.36-17.11,20.59-27.17l-23.49-29.04-169.84-22.8,13.06,28.17,2.42,5.22-5.74.18-129.97,4.02-96.51,43.78,98.73,32.85,5.29,1.76-3.6,4.29-72.09,85.71.81.19-.51.48,111.42,37.67Zm-148.01-157.58l-72.32,93.48,100.35,23.8,70.94-84.35-98.97-32.93Zm-202.72-200.08l-133.55,3.63,144.75,31.69c-5.21-11.73-8.8-23.67-11.2-35.32Zm541.94,233.71c-21.79,6.24-49.07,10.1-81.93,7.64l13.8,10.49c23.53-2.84,46.66-8.56,68.13-18.14ZM485.45,180.03l19.34-16.58c-4.21-5.86-7.88-11.88-11.08-18l-148.69-32.55,140.42,67.12Zm23.96-10.52l-16.46,14.11,1.08.51-5.71,4.89-19.3,16.55,108.11,44.29,40.17-19.99c-52.56-11-86.39-33.6-107.89-60.36Zm143.88,313.37l154.22-23.03-96.12-32.49-58.1,55.52Zm-58.27,6.36l45.32-4.48,62.44-59.66-99.17-23.52-53.62,69.31,43.98,17.93,1.06.43Zm45.95,3.08l-45.33,4.48-74.09,103.23c26.12-13.57,79.76-41.4,156.93-81.21l-37.5-26.5Zm137.59-20.46l-126.63,18.9,34.16,24.14c12.54-6.47,25.65-13.23,39.36-20.29,18.61-9.58,36.31-17.04,53.1-22.74ZM509.33,58.96l3.83-1.36c-1.29-1.35-2.58-2.72-3.87-4.11-.04,1.65-.03,3.48.05,5.47Zm.68,8.2l9.24-3.28c-.93-.94-1.86-1.88-2.79-2.84l-6.85,2.43c.1,1.19.23,2.42.39,3.69Zm1.31,7.97l14.23-5.05c-.96-.93-1.92-1.86-2.89-2.8l-12.01,4.26c.2,1.17.42,2.37.67,3.59Zm1.88,7.77l18.86-6.7c-1-.91-2-1.83-2.99-2.77l-16.8,5.97c.28,1.14.59,2.31.92,3.5Zm2.41,7.58l23.21-8.24c-1.03-.9-2.07-1.81-3.1-2.73l-21.27,7.55c.36,1.13.75,2.26,1.16,3.42Zm2.91,7.4l27.31-9.7c-1.08-.88-2.15-1.78-3.22-2.69l-25.47,9.04c.43,1.1.9,2.22,1.38,3.34Zm3.37,7.23l31.23-11.09c-1.12-.87-2.24-1.75-3.35-2.64l-29.47,10.46c.51,1.08,1.04,2.17,1.59,3.27Zm3.84,7.07l34.99-12.42c-1.17-.86-2.33-1.72-3.48-2.59l-33.3,11.82c.58,1.06,1.17,2.12,1.8,3.19Zm4.28,6.92l38.63-13.71-1.62-1.12c-.67-.47-1.34-.94-2.02-1.42l-36.99,13.13c.65,1.03,1.31,2.07,2,3.12Zm4.72,6.76l42.15-14.96c-1.27-.82-2.52-1.65-3.78-2.49l-40.56,14.4c.71,1.01,1.44,2.03,2.19,3.05Zm5.2,6.59l45.53-16.16c-1.32-.81-2.63-1.61-3.93-2.43l-44.03,15.63c.8,1.01,1.61,2,2.43,2.97Zm5.75,6.39l48.67-17.27c-1.37-.79-2.73-1.59-4.08-2.39l-47.27,16.78c.89.98,1.78,1.94,2.68,2.88Zm6.36,6.18l51.52-18.29c-1.42-.78-2.82-1.55-4.21-2.33l-50.27,17.84c.99.95,1.96,1.88,2.96,2.78Zm76.16-5.57l-57.07,20.26c1.38.9,2.78,1.77,4.16,2.61l57.89-20.46c-1.68-.81-3.33-1.61-4.98-2.42Zm-69.19,11.53l54.04-19.18c-1.47-.76-2.91-1.52-4.35-2.29l-52.94,18.79c1.08.91,2.16,1.81,3.24,2.68Zm59.32-16.45l-55.23,19.6c1.18.88,2.37,1.74,3.55,2.57l56.14-19.92c-1.5-.75-2.99-1.5-4.46-2.25Zm-168.7,293.35l-4.48,1.18,20.9,8.33h0l74.53,29.73,1.61-2.08-92.56-37.16Zm14.57-3.83l-7.5,1.97,88.26,35.44,2.94-3.8-83.69-33.61Zm14.56-3.82l-7.5,1.97,79.4,31.88,2.94-3.8-74.84-30.05Zm14.57-3.83l-7.5,1.98,70.54,28.32,2.94-3.8-65.98-26.5Zm14.57-3.82l-7.5,1.97,61.68,24.77,2.95-3.8-57.12-22.93Zm14.57-3.82l-7.5,1.97,52.82,21.21,2.94-3.8-48.26-19.37Zm14.56-3.82l-7.51,1.97,43.97,17.65,2.94-3.79-39.4-15.83Zm14.57-3.83l-7.5,1.97,35.1,14.1,2.94-3.8-30.54-12.26Zm6.19-7.09l4.76,4.22-3.89,1.02,26.25,10.53,2.93-3.79-30.06-11.99Zm-20.38-18.06l10.8,9.57,42.4,16.91,2.96-3.82-56.16-22.65Zm-19.12-16.97l9.44,8.37,68.6,27.68,2.94-3.79-80.98-32.26Zm-20.5-18.17l10.94,9.69,93.31,37.16,2.95-3.81-107.2-43.04Zm7.55-6.65l-8.46,1.59,110.89,44.52,2.94-3.8-105.36-42.31Zm16.42-3.08l-8.46,1.58,100.17,40.22,2.94-3.79-94.65-38.01Zm16.42-3.08l-8.46,1.59,89.45,35.92,2.94-3.81-83.94-33.7Zm16.42-3.07l-8.46,1.58,78.74,31.61,2.94-3.8-73.22-29.39Zm16.43-3.08l-8.46,1.59,68.02,27.31,2.94-3.8-62.5-25.1Zm16.41-3.08l-8.46,1.59,57.31,23.01,2.94-3.8-51.79-20.8Zm16.43-3.08l-8.46,1.59,46.6,18.71,2.95-3.8-41.08-16.49Zm16.42-3.08l-8.46,1.58,35.88,14.41,2.94-3.8-30.37-12.19Zm16.42-3.08l-8.46,1.59,25.17,10.11,2.94-3.8-19.65-7.89Zm16.43-3.08l-8.46,1.59,14.45,5.8,2.94-3.8-8.93-3.6Zm13.7-2.56l-5.74,1.07,3.75,1.51,1.99-2.58Zm-239.11,128.73l-24.5-9.77,26.6.09,112.53-29.53-63.42-56.23-7.48-6.63,9.83-1.84,180.11-33.76-200.72-82.23-15.69,13.45,7.46,16.38-18.28-11.68-5.55-3.54,5.01-4.29,33.79-28.97h0l8.84-7.58-169.26-80.91,1.98-9.28,167.6-4.56c-7.08-46.16,3.32-85.52,3.38-85.77l1.5-5.95,5.46,2.8c.15.08,52.22,26.81,102.95,53.65,34.44,18.23,81.56,19.69,127.03,21.1,20.05.62,39.78,1.23,58.12,3.25,30.8,3.39,53.33,11.15,71.29,21.55,17.99,10.42,31.25,23.35,43.61,37.14,23.1,25.77,37.74,29.01,37.78,29.02l172.37,39.96.33.08c5.17,1.59,9.26,4,12.42,6.99,4.86,4.61,7.41,10.47,8.24,16.75.78,5.98,0,12.3-1.81,18.2-2.23,7.26-6.04,14.01-10.36,18.71-17.1,28.59-39.26,49.48-64.33,64.34-25.01,14.82-52.87,23.62-81.46,28.06l61.95,47.09c6.54,4.97,11.33,9.82,14.46,14.31,3.78,5.43,5.27,10.53,4.64,14.95-.63,4.42-9.52,21.89-24.17,33.6-8.83,7.06-19.82,12.31-32.53,11.99-6.84-.17-15.8-2.53-27.22-5.53-42.37-11.15-119.98-31.56-230.32,25.28-139.92,72.08-221.77,114.74-222.01,114.86l-6.23-7.19,82.86-115.44-44.19-18.01-1.27-.52-111.33-44.41Zm204.22-200.02c-.78-.12-1.51-.27-2.28-.39l-43.2,21.49,93.38,38.25,91.21-41.37-138.95-19.04-.17,1.06Z"/><g><path class="cls-1" d="m309.5,1438.66c-4.81,0-8.98-.93-12.51-2.78-3.53-1.86-6.57-4.43-9.13-7.71l3.38-3.29c2.37,3.23,5.07,5.59,8.08,7.08,3.01,1.49,6.5,2.24,10.45,2.24,4.26,0,7.73-1,10.41-3.01,2.68-2.01,4.02-4.81,4.02-8.4,0-2.74-.59-4.96-1.78-6.66-1.19-1.7-2.72-3.1-4.61-4.2-1.89-1.09-3.97-2.05-6.25-2.88-2.28-.82-4.56-1.67-6.85-2.56-2.28-.88-4.38-1.99-6.3-3.33-1.92-1.34-3.46-3.03-4.61-5.07-1.16-2.04-1.74-4.67-1.74-7.9s.78-5.92,2.33-8.26c1.55-2.34,3.68-4.15,6.39-5.43,2.71-1.28,5.83-1.92,9.36-1.92,4.02,0,7.61.78,10.77,2.33,3.16,1.55,5.81,3.73,7.94,6.53l-3.38,3.29c-2.01-2.49-4.24-4.4-6.71-5.71s-5.37-1.96-8.72-1.96c-3.9,0-7.04.96-9.45,2.88-2.41,1.92-3.61,4.58-3.61,7.99,0,2.56.58,4.63,1.73,6.21,1.16,1.58,2.69,2.91,4.61,3.97,1.92,1.06,4.02,1.99,6.3,2.78,2.28.79,4.55,1.64,6.8,2.56,2.25.91,4.34,2.05,6.25,3.42s3.45,3.12,4.61,5.25c1.16,2.13,1.73,4.84,1.73,8.12,0,5.29-1.75,9.36-5.25,12.19-3.5,2.83-8.26,4.24-14.29,4.24Z"/><path class="cls-1" d="m381.26,1438.66c-4.38,0-8.44-.82-12.19-2.46-3.74-1.64-7.01-3.94-9.81-6.89-2.8-2.95-4.99-6.37-6.57-10.27-1.58-3.89-2.37-8.06-2.37-12.51s.78-8.69,2.33-12.55c1.55-3.86,3.73-7.26,6.53-10.18,2.8-2.92,6.05-5.19,9.77-6.8,3.71-1.61,7.76-2.42,12.14-2.42s8.44.81,12.19,2.42c3.74,1.61,7,3.88,9.77,6.8,2.77,2.92,4.94,6.33,6.53,10.22,1.58,3.9,2.37,8.1,2.37,12.6s-.78,8.61-2.33,12.51-3.73,7.3-6.53,10.22c-2.8,2.92-6.04,5.2-9.72,6.85-3.68,1.64-7.71,2.46-12.1,2.46Zm-.18-4.66c4.93,0,9.34-1.2,13.24-3.61,3.89-2.4,6.95-5.67,9.17-9.81,2.22-4.14,3.33-8.82,3.33-14.06,0-3.89-.64-7.5-1.92-10.82-1.28-3.32-3.07-6.21-5.39-8.67-2.31-2.46-5.04-4.38-8.17-5.75-3.14-1.37-6.56-2.05-10.27-2.05-4.93,0-9.33,1.19-13.19,3.56-3.87,2.38-6.91,5.62-9.13,9.72s-3.33,8.78-3.33,14.01c0,3.89.64,7.52,1.92,10.86,1.28,3.35,3.07,6.27,5.39,8.76,2.31,2.5,5.04,4.43,8.17,5.8,3.13,1.37,6.53,2.05,10.18,2.05Z"/><path class="cls-1" d="m436.76,1437.75v-62.26h4.84v62.26h-4.84Zm3.1-57.88v-4.38h35.69v4.38h-35.69Zm0,29.03v-4.38h34.14v4.38h-34.14Z"/><path class="cls-1" d="m492.9,1379.87v-4.38h50.39v4.38h-50.39Zm22.73,57.88v-60.53h4.84v60.53h-4.84Z"/><path class="cls-1" d="m578.99,1437.75l-19.9-62.26h4.93l17.71,56.51h-1.73l17.62-56.51h3.92l17.71,56.51h-1.83l17.8-56.51h4.93l-19.99,62.26h-3.74l-17.62-56.33h1.55l-17.53,56.33h-3.83Z"/><path class="cls-1" d="m651.1,1437.75l25.47-62.26h3.83l25.29,62.26h-5.29l-23.01-57.33h2.01l-23.1,57.33h-5.2Zm11.14-18.35v-4.29h32.41v4.29h-32.41Z"/><path class="cls-1" d="m728.33,1437.75v-62.26h4.84v62.26h-4.84Zm2.92-28.57v-4.11h19.26c4.56,0,8.05-1.16,10.45-3.47s3.61-5.39,3.61-9.22-1.2-6.81-3.61-9.13c-2.4-2.31-5.89-3.47-10.45-3.47h-19.26v-4.29h19.08c4.02,0,7.46.72,10.32,2.15,2.86,1.43,5.05,3.41,6.57,5.93,1.52,2.53,2.28,5.46,2.28,8.81s-.76,6.29-2.28,8.81c-1.52,2.53-3.71,4.49-6.57,5.89-2.86,1.4-6.3,2.1-10.32,2.1h-19.08Zm36.51,28.57l-24.1-29.67,4.84-1.28,25.56,30.95h-6.3Z"/><path class="cls-1" d="m795.98,1437.75v-62.26h4.84v62.26h-4.84Zm3.1-57.88v-4.38h36.97v4.38h-36.97Zm0,28.12v-4.29h34.6v4.29h-34.6Zm0,29.76v-4.38h37.43v4.38h-37.43Z"/><path class="cls-1" d="m891.92,1437.75v-62.26h4.84v62.26h-4.84Zm3.1-29.85v-4.38h39.98v4.38h-39.98Zm38.34,29.85v-62.26h4.84v62.26h-4.84Z"/><path class="cls-1" d="m993.98,1438.66c-4.38,0-8.44-.82-12.19-2.46s-7.01-3.94-9.81-6.89c-2.8-2.95-4.99-6.37-6.57-10.27-1.58-3.89-2.37-8.06-2.37-12.51s.78-8.69,2.33-12.55c1.55-3.86,3.73-7.26,6.53-10.18,2.8-2.92,6.05-5.19,9.77-6.8,3.71-1.61,7.76-2.42,12.14-2.42s8.44.81,12.19,2.42c3.74,1.61,7,3.88,9.77,6.8,2.77,2.92,4.94,6.33,6.53,10.22,1.58,3.9,2.37,8.1,2.37,12.6s-.78,8.61-2.33,12.51c-1.55,3.89-3.73,7.3-6.53,10.22-2.8,2.92-6.04,5.2-9.72,6.85-3.68,1.64-7.71,2.46-12.1,2.46Zm-.18-4.66c4.93,0,9.34-1.2,13.24-3.61,3.89-2.4,6.95-5.67,9.17-9.81s3.33-8.82,3.33-14.06c0-3.89-.64-7.5-1.92-10.82-1.28-3.32-3.07-6.21-5.39-8.67-2.31-2.46-5.04-4.38-8.17-5.75-3.13-1.37-6.56-2.05-10.27-2.05-4.93,0-9.33,1.19-13.19,3.56-3.87,2.38-6.91,5.62-9.13,9.72-2.22,4.11-3.33,8.78-3.33,14.01,0,3.89.64,7.52,1.92,10.86,1.28,3.35,3.07,6.27,5.39,8.76,2.31,2.5,5.04,4.43,8.17,5.8s6.53,2.05,10.18,2.05Z"/><path class="cls-1" d="m1071.58,1438.66c-4.38,0-8.29-.99-11.73-2.97-3.44-1.98-6.16-4.67-8.17-8.08s-3.01-7.27-3.01-11.59v-40.53h4.84v40.17c0,3.71.79,6.95,2.37,9.72,1.58,2.77,3.74,4.9,6.48,6.39,2.74,1.49,5.81,2.24,9.22,2.24s6.54-.74,9.22-2.24c2.68-1.49,4.81-3.62,6.39-6.39s2.37-5.98,2.37-9.63v-40.26h4.84v40.62c0,4.32-.99,8.17-2.97,11.55-1.98,3.38-4.69,6.06-8.12,8.03-3.44,1.98-7.35,2.97-11.73,2.97Z"/><path class="cls-1" d="m1137.94,1438.66c-4.81,0-8.98-.93-12.51-2.78-3.53-1.86-6.57-4.43-9.13-7.71l3.38-3.29c2.37,3.23,5.07,5.59,8.08,7.08,3.01,1.49,6.5,2.24,10.45,2.24,4.26,0,7.73-1,10.41-3.01,2.68-2.01,4.02-4.81,4.02-8.4,0-2.74-.59-4.96-1.78-6.66-1.19-1.7-2.72-3.1-4.61-4.2-1.89-1.09-3.97-2.05-6.25-2.88s-4.56-1.67-6.85-2.56c-2.28-.88-4.38-1.99-6.3-3.33-1.92-1.34-3.45-3.03-4.61-5.07-1.16-2.04-1.73-4.67-1.73-7.9s.78-5.92,2.33-8.26c1.55-2.34,3.68-4.15,6.39-5.43,2.71-1.28,5.83-1.92,9.36-1.92,4.02,0,7.61.78,10.77,2.33,3.16,1.55,5.81,3.73,7.94,6.53l-3.38,3.29c-2.01-2.49-4.25-4.4-6.71-5.71s-5.37-1.96-8.72-1.96c-3.9,0-7.04.96-9.45,2.88-2.4,1.92-3.61,4.58-3.61,7.99,0,2.56.58,4.63,1.73,6.21,1.16,1.58,2.69,2.91,4.61,3.97s4.02,1.99,6.3,2.78c2.28.79,4.55,1.64,6.8,2.56,2.25.91,4.34,2.05,6.25,3.42,1.92,1.37,3.45,3.12,4.61,5.25,1.16,2.13,1.74,4.84,1.74,8.12,0,5.29-1.75,9.36-5.25,12.19-3.5,2.83-8.26,4.24-14.29,4.24Z"/><path class="cls-1" d="m1182.22,1437.75v-62.26h4.84v62.26h-4.84Zm3.1-57.88v-4.38h36.97v4.38h-36.97Zm0,28.12v-4.29h34.6v4.29h-34.6Zm0,29.76v-4.38h37.43v4.38h-37.43Z"/></g><g><polygon class="cls-2" points="207.43 890.04 37.22 976.66 102.35 1119.81 207.43 890.04"/><path class="cls-2" d="m877.14,898.16c-12.65-25.29-30.33-44.98-53.04-59.07-22.72-14.08-49.3-21.13-79.77-21.13s-59.65,7.2-84.08,21.56c-24.44,14.38-43.7,34.21-57.78,59.5-14.1,25.31-21.13,54.05-21.13,86.24s7.03,61.81,21.13,87.1c14.08,25.31,33.48,45.14,58.21,59.5,24.71,14.38,52.89,21.56,84.51,21.56,45.99,0,82.64-15.38,109.95-46.14,27.3-30.75,40.96-71.15,40.96-121.17,0-33.34-6.33-62.66-18.97-87.96Z"/><polygon class="cls-1" points="388.18 1186.19 432.16 1186.19 432.16 775.68 388.18 798.06 388.18 1186.19"/><path class="cls-1" d="m894.39,865.34c8.35,16.26,14.1,34.38,17.25,54.38v131.08c-3.42,19.38-9.18,37.05-17.25,53.04v82.35h43.98v-401.01h-43.98v80.15Z"/><path class="cls-1" d="m1128.52,880.05c11.21-19.54,26.73-34.93,46.57-46.14,19.84-11.21,42.69-16.82,68.56-16.82,37.94,0,68.26,12.07,90.98,36.22,22.7,24.15,34.06,55.77,34.06,94.86v238.02h43.98v-243.19c0-32.19-6.62-60.93-19.84-86.24-13.23-25.29-31.77-44.98-55.62-59.07-23.86-14.08-51.61-21.13-83.22-21.13s-59.07,6.9-84.08,20.7c-24.52,13.53-43.92,31.91-58.21,55.11v95.81c0-25.87,5.61-48.58,16.82-68.13Z"/><path class="cls-1" d="m1089.28,935.24l22.42,12.93v-95.81c-.28.46-.58.91-.86,1.38-14.38,23.86-21.56,51.03-21.56,81.5Z"/><path class="cls-1" d="m1067.72,1186.19h43.98v-238.02l-22.42-12.93c0-30.47,7.18-57.63,21.56-81.5.28-.47.58-.92.86-1.38v-269.48c-14.8.21-29.47.7-43.98,1.44v601.87Z"/><polygon class="cls-1" points="102.35 1119.81 115.68 1149.11 88.95 1149.11 102.35 1119.81 37.22 976.66 0 995.6 88.95 1186.19 114.82 1186.19 268.14 859.15 207.43 890.04 102.35 1119.81"/><path class="cls-1" d="m911.64,919.72c-3.14-20-8.89-38.13-17.25-54.38v17.3l9.49,97.45-9.49,98.31v25.45c8.07-15.99,13.83-33.66,17.25-53.04v-131.08Z"/><path class="cls-1" d="m903.88,980.09l-9.49-97.45v-17.3c-3.89-7.57-8.34-14.75-13.37-21.51-15.82-21.26-35.94-37.8-60.37-49.59-24.44-11.78-52.18-17.68-83.22-17.68-37.94,0-72.16,9.35-102.62,28.03-30.48,18.69-54.63,43.85-72.44,75.46-17.83,31.63-26.73,66.98-26.73,106.07s8.91,75.18,26.73,106.5c17.81,31.34,41.96,56.2,72.44,74.6,30.47,18.41,65.24,27.6,104.35,27.6,29.89,0,56.92-5.9,81.06-17.68,24.15-11.78,44.12-28.46,59.94-50.02,5.36-7.31,10.09-15.08,14.23-23.28v-25.45l9.49-98.31Zm-48.72,127.2c-27.31,30.76-63.96,46.14-109.95,46.14-31.63,0-59.8-7.18-84.51-21.56-24.73-14.36-44.13-34.2-58.21-59.5-14.1-25.29-21.13-54.33-21.13-87.1s7.03-60.93,21.13-86.24c14.08-25.29,33.34-45.13,57.78-59.5,24.43-14.36,52.46-21.56,84.08-21.56s57.05,7.05,79.77,21.13c22.71,14.1,40.38,33.78,53.04,59.07,12.64,25.31,18.97,54.63,18.97,87.96,0,50.02-13.66,90.42-40.96,121.17Z"/><polygon class="cls-1" points="115.68 1149.11 102.35 1119.81 88.95 1149.11 115.68 1149.11"/><path class="cls-1" d="m1067.72,580.8v3.52c14.51-.74,29.18-1.23,43.98-1.44v-2.09h-43.98Z"/></g></g></svg>